<svg width="360" height="49" viewBox="0 0 360 49" fill="none" xmlns="http://www.w3.org/2000/svg">
<path d="M342.196 6.68255C338.525 6.97022 335.731 7.44967 332.449 8.34464C329.46 9.14373 325.919 10.5501 326.017 10.8697C326.082 11.0296 327.641 12.4999 329.493 14.1939C332.157 16.6232 333.034 17.2624 333.619 17.1346C334.236 17.0387 334.301 17.1026 334.074 17.5181C333.944 17.8058 333.489 18.3172 333.132 18.6368C332.449 19.2441 332.449 19.2441 332.449 18.3492C332.449 17.2305 330.175 15.0569 327.154 13.267C324.425 11.6688 323.06 11.7647 319.844 13.8104C317.277 15.4405 316.465 16.5592 317.212 17.4222C317.862 18.1894 320.981 20.203 323.19 21.2898C330.175 24.7099 338.005 26.2761 348.206 26.308C354.964 26.308 358.148 25.8925 364.126 24.2624C370.039 22.6003 376.374 19.4999 378.421 17.2624C379.038 16.5592 379.038 16.5592 378.096 15.7921C371.923 10.7739 362.404 7.51359 351.618 6.68255C346.874 6.33095 346.809 6.33095 342.196 6.68255ZM358.96 9.36747C365.815 10.7739 372.67 13.6186 376.276 16.4953C376.634 16.751 375.074 17.9017 372.508 19.2122C362.794 24.2304 349.636 25.8925 336.835 23.7829C330.728 22.7601 324.555 20.5227 320.461 17.8058L318.772 16.6871L319.746 15.888C320.266 15.4405 321.371 14.7373 322.216 14.3538C324.36 13.3309 325.237 13.6506 329.103 16.8469C330.792 18.2533 330.793 18.2533 330.338 19.1483C329.655 20.4588 329.72 21.0341 330.63 21.4177C331.28 21.7373 331.637 21.6734 332.579 21.098C333.944 20.235 335.763 18.2213 336.51 16.719C337.453 14.7693 335.958 13.6186 334.139 14.8652C333.424 15.3446 333.327 15.2807 331.507 13.7464C328.453 11.1574 328.453 11.3172 331.41 10.3903C333.651 9.6871 337.03 8.98391 340.409 8.4725C340.961 8.40857 344.47 8.37661 348.206 8.44053C354.022 8.53642 355.614 8.66428 358.96 9.36747Z" fill="#5A2F4C"/>
<path d="M342.261 12.5002C340.052 13.0755 340.117 15.5047 342.391 16.4317C344.015 17.1029 345.185 17.039 346.224 16.2399C347.264 15.4408 347.297 14.6417 346.354 13.555C345.477 12.5641 343.755 12.1167 342.261 12.5002Z" fill="#5A2F4C"/>
<path d="M352.787 17.8698C350.286 18.637 349.831 20.8424 352.04 21.6735C353.307 22.1529 354.412 22.121 355.516 21.5456C357.466 20.5548 357.563 18.7648 355.646 17.9977C354.444 17.4863 354.152 17.4863 352.787 17.8698Z" fill="#5A2F4C"/>
<path fill-rule="evenodd" clip-rule="evenodd" d="M307.011 0.321963C305.614 1.12105 305.224 3.8699 306.426 4.86077C306.719 5.08451 309.058 5.97948 311.657 6.81053C314.256 7.64158 317.245 8.72834 318.284 9.20779L320.201 10.0388L318.122 11.4133C316.952 12.1484 315.588 13.2032 315.036 13.7466C314.126 14.7055 314.093 14.8014 313.963 18.7009C313.834 23.4635 314.418 26.468 316.108 30.016C317.96 33.8516 321.208 37.6232 325.529 40.9474C327.739 42.6735 328.226 43.2808 328.226 44.4634C328.226 44.8789 328.708 46.1671 329.066 46.7105H0V48.989C40.0257 48.989 336.023 49.1301 336.023 49.0661L359.415 49.0342H401V46.7105H365.912L366.469 46.1409C367.054 45.4696 367.212 44.9429 367.212 44.0798C367.212 42.8972 367.342 42.7374 369.649 41.0433C373.71 38.0068 377.024 34.2671 378.908 30.5274C380.825 26.6918 381.507 23.8151 381.507 19.532C381.507 14.3539 381.052 13.5868 376.179 10.6781C367.992 5.81967 357.66 3.55027 345.282 3.90186C338.492 4.09364 333.879 4.86077 328.388 6.68268C326.796 7.19409 325.237 7.64158 324.977 7.64158C324.717 7.64158 323.71 7.13017 322.768 6.52286C320.494 4.98862 314.971 2.14388 312.014 0.929268C309.545 -0.0615975 308.018 -0.253378 307.011 0.321963ZM329.85 43.8881C329.85 45.1027 331.507 46.7328 333.911 47.8835C334.297 48.0733 334.658 48.2561 334.969 48.4194L360.343 48.4845C360.606 48.3485 360.91 48.1976 361.234 48.0433C363.833 46.8287 365.588 45.1027 365.588 43.7283C365.588 42.2579 366.14 41.5547 368.999 39.4452C375.854 34.363 379.33 28.3219 379.785 20.7466C380.045 16.1758 379.688 15.0571 377.608 13.5868C375.139 11.8288 370.916 9.7192 367.862 8.66441C355.419 4.41328 339.499 4.41328 327.804 8.63245C326.309 9.17582 324.945 9.49546 324.587 9.3676C324.23 9.27171 322.67 8.4087 321.111 7.48176C315.588 4.18953 309.383 1.40872 308.181 1.72835C307.628 1.85621 307.433 2.14388 307.433 2.78314C307.433 3.61419 307.596 3.71008 311.754 5.02058C316.173 6.39501 322.183 8.92012 322.963 9.68724C323.353 10.0388 322.995 10.3585 320.689 11.7329C319.227 12.6279 317.472 13.7786 316.887 14.29C315.752 15.2157 315.75 15.2488 315.621 18.2738L315.62 18.2854C315.231 26.7557 318.804 33.6917 326.472 39.4771C329.006 41.3949 329.85 42.4817 329.85 43.8881Z" fill="#5A2F4C"/>
<path fill-rule="evenodd" clip-rule="evenodd" d="M333.911 47.8835C331.507 46.7328 329.85 45.1027 329.85 43.8881C329.85 42.4817 329.006 41.3949 326.472 39.4771C318.804 33.6917 315.231 26.7557 315.62 18.2854L315.621 18.2738C315.75 15.2488 315.752 15.2157 316.887 14.29C317.472 13.7786 319.227 12.6279 320.689 11.7329C322.995 10.3585 323.353 10.0388 322.963 9.68724C322.183 8.92012 316.173 6.39501 311.754 5.02058C307.596 3.71008 307.433 3.61419 307.433 2.78314C307.433 2.14388 307.628 1.85621 308.181 1.72835C309.383 1.40872 315.588 4.18953 321.111 7.48176C322.67 8.4087 324.23 9.27171 324.587 9.3676C324.945 9.49546 326.309 9.17582 327.804 8.63245C339.499 4.41328 355.419 4.41328 367.862 8.66441C370.916 9.7192 375.139 11.8288 377.608 13.5868C379.688 15.0571 380.045 16.1758 379.785 20.7466C379.33 28.3219 375.854 34.363 368.999 39.4452C366.14 41.5547 365.588 42.2579 365.588 43.7283C365.588 45.1027 363.833 46.8287 361.234 48.0433C360.91 48.1976 360.606 48.3485 360.343 48.4845L334.969 48.4194C334.658 48.2561 334.297 48.0733 333.911 47.8835ZM332.449 8.34464C335.731 7.44967 338.525 6.97022 342.196 6.68255C346.809 6.33095 346.874 6.33095 351.618 6.68255C362.404 7.51359 371.923 10.7739 378.096 15.7921C379.038 16.5592 379.038 16.5592 378.421 17.2624C376.374 19.4999 370.039 22.6003 364.126 24.2624C358.148 25.8925 354.964 26.308 348.206 26.308C338.005 26.2761 330.175 24.7099 323.19 21.2898C320.981 20.203 317.862 18.1894 317.212 17.4222C316.465 16.5592 317.277 15.4405 319.844 13.8104C323.06 11.7647 324.425 11.6688 327.154 13.267C330.175 15.0569 332.449 17.2305 332.449 18.3492C332.449 19.2441 332.449 19.2441 333.132 18.6368C333.489 18.3172 333.944 17.8058 334.074 17.5181C334.301 17.1026 334.236 17.0387 333.619 17.1346C333.034 17.2624 332.157 16.6232 329.493 14.1939C327.641 12.4999 326.082 11.0296 326.017 10.8697C325.919 10.5501 329.46 9.14373 332.449 8.34464Z" fill="#5A2F4C"/>
</svg>
