<svg width="136" height="39" viewBox="0 0 136 39" fill="none" xmlns="http://www.w3.org/2000/svg">
<path d="M113.188 18.472C113.188 18.3618 113.354 18.0588 113.574 17.8384C113.735 17.6612 113.87 17.1633 113.967 16.3332H116.258C116.238 17.1464 116.404 17.3791 117.155 18.1965C117.706 18.7475 118.092 19.3535 117.982 19.4913C117.899 19.629 117.789 20.2626 117.734 20.9238C117.679 21.5574 117.541 22.3838 117.458 22.7695C117.376 23.1552 117.238 23.8989 117.155 24.4224C116.852 26.7364 116.687 27.6179 116.494 27.8659C116.384 28.0036 116.329 28.4719 116.384 28.8851C116.412 29.3259 116.329 29.6565 116.191 29.6565C116.026 29.6565 115.916 29.987 115.971 30.4003C115.998 30.841 115.888 31.4746 115.75 31.8603C115.585 32.246 115.53 32.6592 115.613 32.7969C115.695 32.9347 115.613 32.9622 115.447 32.852C115.282 32.7418 115.144 32.8796 115.144 33.1551C115.172 33.8713 114.401 35.8272 114.208 35.5517C114.153 35.414 113.932 34.1468 113.739 32.7694C113.547 31.3644 113.299 30.2901 113.188 30.3452C113.078 30.4003 112.996 30.1248 112.968 29.7116C112.913 28.0862 112.775 27.067 112.031 22.9072C111.618 20.483 111.673 20.0147 112.527 19.2709C112.885 18.9403 113.188 18.5822 113.188 18.472Z" fill="#E66D0B"/>
<path d="M112.638 1.08936C112.638 0.648588 112.72 0.180273 112.803 0.0976295C113.078 -0.177851 113.464 0.152721 113.712 0.813873C113.85 1.14445 114.18 1.41993 114.456 1.41993C114.896 1.41993 114.979 1.61276 114.896 2.52185C114.731 5.24909 114.731 12.8523 114.924 12.8523C115.034 12.8523 115.117 12.5769 115.144 12.2187C115.172 11.8882 115.199 11.3096 115.255 10.924C115.282 10.5383 115.392 9.35374 115.502 8.27937C115.861 4.17473 116.219 2.57694 116.219 4.89097C116.219 5.77251 116.301 5.99289 116.494 5.68986C116.632 5.46948 116.77 5.41438 116.77 5.57967C116.77 5.77251 117.073 5.99289 117.458 6.07553C117.844 6.18573 118.147 6.40611 118.147 6.5714C118.147 6.73669 118.064 6.81933 117.982 6.73669C117.899 6.65404 117.569 6.84688 117.21 7.205C116.88 7.53558 116.467 7.86615 116.274 7.92125C116.053 8.00389 115.888 9.18845 115.806 11.4749C115.613 15.3867 116.219 15.1388 116.604 11.1168C116.632 11.0066 116.715 10.924 116.852 10.924C117.706 10.924 117.734 10.924 117.348 11.1719C117.073 11.3647 117.073 11.4474 117.321 11.6127C117.513 11.7229 117.761 11.6678 117.872 11.4749C117.982 11.3096 118.175 11.1719 118.312 11.1719C118.45 11.1995 118.56 10.9791 118.588 10.676C118.615 10.4006 118.726 9.98734 118.836 9.79451C119.029 9.49148 119.001 9.46393 118.671 9.71186C118.45 9.87715 117.954 10.0975 117.569 10.1802C116.907 10.3455 116.852 10.2904 116.99 9.68432C117.045 9.29865 117.238 8.91297 117.403 8.80278C117.569 8.69259 117.624 8.80278 117.513 9.07826C117.293 9.65677 117.789 9.95979 118.285 9.54658C118.533 9.32619 118.836 9.32619 119.139 9.49148C119.442 9.65677 119.497 9.79451 119.277 9.93225C119.111 10.0424 118.974 10.3455 118.974 10.6209C118.974 11.227 117.777 11.7681 117.238 12.1361C116.699 12.5041 116.301 15.6071 116.301 15.6071C116.282 15.8656 116.267 16.0817 116.26 16.2681H113.967C114.03 15.6918 114.082 14.9477 114.125 14.0093C114.208 12.1636 114.208 10.6485 114.18 10.6485C114.125 10.6485 113.739 10.8138 113.326 11.0342C112.913 11.2545 112.362 11.3647 112.142 11.2545C111.839 11.1444 111.811 11.0617 112.031 10.9791C112.582 10.8138 112.417 10.373 111.673 10.0424C110.93 9.71186 110.847 8.85788 111.536 8.85788C111.756 8.85788 111.949 8.66504 111.949 8.44466C111.949 7.72841 113.354 7.78351 113.85 8.49975C114.263 9.07826 114.29 9.02317 114.29 7.01217C114.29 5.1389 114.235 4.89097 113.739 4.72569C113.436 4.64304 113.078 4.61549 112.941 4.69814C112.555 4.94607 111.205 4.34001 111.398 4.00944C111.508 3.84415 111.784 3.78905 112.031 3.89925C112.362 4.03699 112.362 3.92679 111.921 3.43093C111.646 3.07281 111.343 2.74223 111.26 2.65959C110.544 1.94334 111.453 0.924067 112.224 1.55767C112.582 1.8607 112.638 1.77805 112.638 1.08936Z" fill="#5A8C1C"/>
<path d="M15.6197 10.2904C14.4903 10.4556 14.0495 11.3372 14.325 12.8523C14.4627 13.541 14.5729 18.5823 14.6004 24.0368C14.6004 35.2488 14.4076 34.3397 16.8043 34.3397C18.4296 34.3397 19.5591 33.8714 19.5591 33.2103C19.5591 32.6317 19.0081 32.4114 17.4654 32.4114H16.2533V27.5905V22.7696H17.0522C18.0439 22.7696 18.6775 22.0809 18.2643 21.4473C18.0715 21.1443 17.6583 21.0065 17.0247 21.0341L16.088 21.0892L16.0605 16.5437L16.0054 12.0259H16.8043C17.245 12.0259 17.7685 11.9432 18.0164 11.8606C18.6224 11.6402 18.5673 10.7311 17.9337 10.373C17.3828 10.0975 17.0247 10.07 15.6197 10.2904Z" fill="#E66D0B"/>
<path d="M39.8344 13.3483C39.7517 13.486 39.5589 14.8083 39.4212 16.3235C39.063 19.7119 37.9887 25.6622 36.9418 30.2076C36.1429 33.6511 36.1705 34.3398 37.0796 34.3398C37.6305 34.3398 37.9611 33.541 38.3192 31.3096C38.5121 30.2352 38.7875 29.271 38.9528 29.2159C39.1181 29.1608 39.8895 29.2159 40.6333 29.3261L42.0107 29.519L42.2861 31.6401C42.5616 33.8715 42.9197 34.5327 43.636 34.2572C44.1869 34.0368 44.1869 33.3206 43.6635 29.6567C43.0575 25.3868 42.1484 16.7367 42.1484 15.3868C42.1484 13.7615 41.7627 13.1279 40.771 13.1279C40.3302 13.1279 39.917 13.2381 39.8344 13.3483ZM41.2669 21.0342C41.4597 23.1278 41.5974 25.6622 41.5974 26.7091C41.5974 28.7752 41.8454 28.6099 39.5038 28.1416C38.9253 28.0038 38.8151 27.8661 38.9528 27.2325C39.0355 26.8193 39.4212 24.4226 39.8619 21.8606C40.2751 19.3262 40.6884 17.2601 40.771 17.2601C40.8536 17.2601 41.1016 18.9681 41.2669 21.0342Z" fill="#E66D0B"/>
<path d="M48.8977 13.3207C48.2916 13.4033 47.6855 13.5411 47.5478 13.6788C47.1621 14.0645 47.355 33.596 47.7406 33.8439C48.6222 34.4224 50.9913 32.9348 51.8728 31.2819C52.2861 30.5106 52.3687 29.877 52.2585 27.8109C52.1208 24.6704 51.5974 23.6512 49.8894 23.0451L48.7048 22.6319L48.8977 18.9129C49.0079 16.8744 49.1456 15.1113 49.2007 15.0287C49.2558 14.946 49.9445 14.7807 50.7158 14.6981C52.3136 14.5052 52.7819 14.2022 52.534 13.5686C52.3687 13.1278 51.5147 13.0727 48.8977 13.3207ZM50.5781 25.4142C51.0739 26.5988 51.0739 29.6842 50.5781 30.8963C50.2475 31.6952 49.4486 32.4114 48.9252 32.4114C48.7048 32.4114 48.7048 24.5602 48.9252 24.3674C49.2833 23.9817 50.22 24.5878 50.5781 25.4142Z" fill="#E66D0B"/>
<path d="M56.2254 13.5137C55.6469 14.2024 55.6194 33.238 56.1703 33.8992C56.7213 34.5603 60.275 34.4226 60.7157 33.7063C61.1565 33.0176 60.5229 32.6871 58.7598 32.6871H57.2998V27.8662V23.0453H58.3466C59.724 23.0453 60.3025 22.6596 59.8893 22.026C59.6965 21.6954 59.173 21.5026 58.4292 21.4475L57.2998 21.3648V18.1968V15.0564H57.9609C58.3466 15.0564 58.9527 15.1665 59.3383 15.3043C60.1097 15.6073 60.7708 15.0839 60.4953 14.3677C60.1372 13.431 56.8315 12.7974 56.2254 13.5137Z" fill="#E66D0B"/>
<path d="M86.2802 13.4585C86.0874 13.7064 86.0047 17.2326 86.0323 23.6512C86.0874 32.5217 86.1425 33.541 86.5557 33.9542C86.9413 34.3398 87.1066 34.3674 87.4648 34.0644C87.8504 33.7613 87.878 33.1002 87.7127 29.0782L87.5199 24.4226L88.181 24.4501C88.5391 24.4777 89.2278 24.5603 89.6686 24.6705L90.495 24.8358L90.5226 28.8303C90.5501 32.8523 90.8256 34.3398 91.5694 34.3398C92.4785 34.3398 92.5336 33.7062 92.2857 27.5906C92.1479 24.2573 92.0377 19.6292 92.0102 17.3152V13.1279H91.349C90.2747 13.1279 90.1645 13.5962 90.3848 17.1224C90.495 18.9405 90.6052 21.0893 90.6052 21.8606L90.6328 23.3207H89.1176H87.6025V18.5549C87.6025 15.2216 87.4923 13.6789 87.2719 13.4585C86.8587 13.0453 86.6383 13.0453 86.2802 13.4585Z" fill="#E66D0B"/>
<path d="M97.4371 13.6236C95.6741 15.5519 95.371 27.4251 96.9688 31.6675C97.9605 34.3396 99.6961 35.2212 101.597 34.0642C103.498 32.9072 104.297 29.2433 104.049 22.7695C103.828 17.1497 102.892 14.7806 100.44 13.6511C99.0074 12.99 98.0156 12.99 97.4371 13.6236ZM100.908 15.3316C101.955 16.158 102.148 17.1773 102.368 22.494C102.644 29.6565 101.9 32.9623 99.944 33.1826C98.4289 33.3755 97.7402 30.5105 97.6575 23.3205C97.5749 18.2516 97.7953 15.855 98.3738 15.1387C98.8421 14.6153 100.109 14.698 100.908 15.3316Z" fill="#E66D0B"/>
<path d="M26.4736 13.9266C26.3083 14.2296 26.1706 15.9376 26.1706 17.7558C26.1706 23.7337 25.4268 29.078 24.2698 31.3094C23.829 32.1634 23.4433 32.4664 21.7629 33.2377C21.1018 33.5408 21.0467 36.2956 21.7078 37.0945C22.3965 37.9484 22.8648 37.5903 22.8648 36.1578V34.9457L24.7381 34.7804C25.7574 34.6702 27.5204 34.4774 28.6499 34.3121C29.7794 34.1468 31.4598 34.0642 32.3689 34.1193L34.0218 34.2019V35.9099C34.0493 37.8107 34.4074 38.4994 35.1237 37.9209C35.4267 37.673 35.5369 37.0118 35.5369 35.1385C35.5369 32.4113 35.3441 32.1358 33.5259 32.1358H32.5617L32.424 25.7171C32.3413 22.2186 32.2862 18.0313 32.3138 16.4335L32.3689 13.5409L29.559 13.4583C26.997 13.4032 26.7216 13.4308 26.4736 13.9266ZM30.9639 17.866C31.1843 21.0891 31.1843 27.5904 30.9639 30.3177L30.7711 32.4113L29.7794 32.6592C28.5673 32.9623 25.3442 33.3479 25.3442 33.1826C25.3442 33.1 25.5921 32.3287 25.8951 31.4196C26.7766 28.8576 27.2174 25.7998 27.4103 20.3453L27.6306 15.3316H29.2009H30.7711L30.9639 17.866Z" fill="#E66D0B"/>
<path d="M67.0793 13.651L66.2529 13.8163L66.3355 20.7033C66.4733 29.7666 66.0325 32.5213 64.297 33.2927C63.5256 33.6508 63.5256 34.4222 64.2694 34.5599C65.0132 34.6976 66.0049 33.9263 66.8038 32.5489C67.7956 30.8685 68.1537 27.1495 67.9057 20.3727L67.7405 15.0835L69.0077 14.8907C69.6964 14.808 70.33 14.7805 70.4126 14.8631C70.633 15.0835 71.1289 31.8326 70.936 32.8519C70.7432 33.8987 71.3217 34.4773 72.2032 34.2018C72.7542 34.0089 72.7817 33.8987 72.6164 32.0255C72.5338 30.9511 72.3685 26.4608 72.2859 22.0807C72.1757 17.5353 71.9828 13.954 71.8176 13.7336C71.5421 13.3755 68.5944 13.3204 67.0793 13.651Z" fill="#E66D0B"/>
<path d="M77.0241 13.6236C76.8313 13.9542 76.7762 33.5133 76.969 33.7061C77.0516 33.7888 77.7128 33.9265 78.429 33.9816C81.3216 34.2295 82.7816 32.4114 82.7816 28.5546C82.7816 25.4142 82.0929 23.8164 80.3849 23.045C79.7238 22.742 78.8973 22.4941 78.5392 22.4941C77.9332 22.4941 77.9056 22.4114 78.0434 21.3095C78.4566 18.3343 78.5668 14.5603 78.2637 14.0093C77.9332 13.4033 77.2996 13.2104 77.0241 13.6236ZM80.2472 24.6153C81.2665 25.5795 81.4593 28.3618 80.688 31.337C80.4125 32.3838 80.0268 32.6868 78.8973 32.6868H78.2362V28.2516V23.8164L79.0075 24.0092C79.4208 24.0919 79.9717 24.3949 80.2472 24.6153Z" fill="#E66D0B"/>
</svg>
