<svg width="29" height="25" viewBox="0 0 29 25" fill="none" xmlns="http://www.w3.org/2000/svg">
<rect width="29" height="25" fill="#E5E5E5"/>
<g clip-path="url(#clip0)">
<rect width="360" height="640" transform="translate(-331 -23)" fill="#FFF3D3"/>
<rect width="34" height="25" rx="6" fill="#5A2F4C"/>
<path d="M14.0757 3C11.9339 3 9.87981 3.85082 8.36533 5.36529C6.85085 6.87976 6.00002 8.93382 6 11.0756C6 13.2174 6.85083 15.2715 8.36531 16.786C9.87979 18.3004 11.9339 19.1513 14.0757 19.1513C16.2175 19.1513 18.2716 18.3004 19.786 16.786C21.3005 15.2715 22.1513 13.2174 22.1513 11.0756C22.1513 8.93382 21.3005 6.87976 19.786 5.36529C18.2715 3.85082 16.2175 3 14.0757 3V3ZM14.0757 4.40369C14.9703 4.40368 15.8563 4.57625 16.6828 4.91155C17.5094 5.24684 18.2604 5.73829 18.8931 6.35784C19.5257 6.97738 20.0275 7.71289 20.3699 8.52237C20.7123 9.33184 20.8885 10.1994 20.8885 11.0756C20.8885 11.9518 20.7123 12.8194 20.3699 13.6288C20.0275 14.4383 19.5257 15.1738 18.8931 15.7934C18.2604 16.4129 17.5094 16.9044 16.6828 17.2397C15.8563 17.575 14.9703 17.7475 14.0757 17.7475C12.2688 17.7475 10.5359 17.0446 9.25831 15.7934C7.98067 14.5421 7.26289 12.8451 7.26289 11.0756C7.26289 9.30611 7.98067 7.60909 9.25831 6.35786C10.5359 5.10663 12.2688 4.4037 14.0757 4.40369V4.40369Z" fill="#FFF3D3"/>
<path d="M23.7064 21.1779L20.0588 16.9492C19.43 16.2203 18.6627 15.9667 18.345 16.3828C18.0272 16.799 18.2794 17.7272 18.9081 18.4561L22.5558 22.6848C23.1845 23.4137 23.9518 23.6673 24.2696 23.2512C24.5873 22.8351 24.3352 21.9068 23.7064 21.1779Z" fill="#FFF3D3"/>
</g>
<defs>
<clipPath id="clip0">
<rect width="360" height="640" fill="white" transform="translate(-331 -23)"/>
</clipPath>
</defs>
</svg>
